<svg width="19" height="25" viewBox="0 0 19 25" fill="none" xmlns="http://www.w3.org/2000/svg">
<path d="M12.5 0L18.75 6.25H12.5V0ZM10.9375 6.25C10.9375 7.12891 11.6211 7.8125 12.5 7.8125H18.75V22.6562C18.75 23.9746 17.6758 25 16.4062 25H2.34375C1.02539 25 0 23.9746 0 22.6562V2.34375C0 1.07422 1.02539 0 2.34375 0H10.9375V6.25ZM14.0625 16.8457C14.5508 16.4062 14.5508 15.6738 14.0625 15.1855L10.1562 11.2793C9.7168 10.8398 8.98438 10.8398 8.54492 11.2793L4.63867 15.1855C4.15039 15.6738 4.15039 16.4062 4.63867 16.8457C5.07812 17.334 5.81055 17.334 6.25 16.8457L8.20312 14.9414V19.9219C8.20312 20.6055 8.69141 21.0938 9.375 21.0938C10.0098 21.0938 10.5469 20.6055 10.5469 19.9219V14.9414L12.4512 16.8457C12.6465 17.0898 12.9395 17.1875 13.2812 17.1875C13.5742 17.1875 13.8672 17.0898 14.0625 16.8457Z" fill="#FF8D00"/>
</svg>
