<svg width="16" height="16" viewBox="0 0 16 16" fill="none" xmlns="http://www.w3.org/2000/svg">
<path d="M14.7949 1.28906L10.8398 5.24414H12.1875C12.5684 5.24414 12.8906 5.56641 12.8906 5.94727C12.8906 6.35742 12.5684 6.65039 12.1875 6.65039H9.14062C8.73047 6.65039 8.4375 6.35742 8.4375 5.94727V2.90039C8.4375 2.51953 8.73047 2.19727 9.14062 2.19727C9.52148 2.19727 9.84375 2.51953 9.84375 2.90039V4.27734L13.7988 0.292969C14.0625 0.0292969 14.502 0.0292969 14.7656 0.292969C15.0586 0.585938 15.0586 1.02539 14.7656 1.28906H14.7949ZM3.42773 0.146484C3.98438 0 4.59961 0.263672 4.80469 0.820312L5.97656 3.63281C6.18164 4.10156 6.06445 4.6582 5.6543 4.98047L4.21875 6.18164C5.18555 8.23242 6.85547 9.90234 8.90625 10.8691L10.1074 9.43359C10.4297 9.02344 10.9863 8.90625 11.4551 9.11133L14.2676 10.2832C14.7949 10.4883 15.0879 11.1035 14.9414 11.6602L14.2383 14.2383C14.0918 14.7363 13.6523 15.0879 13.125 15.0879C5.85938 15.0879 0 9.22852 0 1.96289C0 1.43555 0.351562 0.996094 0.849609 0.849609L3.42773 0.146484Z" fill="white"/>
</svg>
